{"title":"Ip.Man.2008.SWESUB.DVDRip.XviD.AC3.(5.1).-Zen_Bud","uid":5701565,"size":1478497894,"categoryP":"video","categoryS":"movies","magnet":"?xt=urn:btih:47e438a3dbecdd0f537915a8a1817885e786c6a9&amp;dn=Ip.Man.2008.SWESUB.DVDRip.XviD.AC3.%285.1%29.-Zen_Bud&amp;tr=udp%3A%2F%2Ftracker.openbittorrent.com%3A80&amp;tr=udp%3A%2F%2Fopen.demonii.com%3A1337&amp;tr=udp%3A%2F%2Ftracker.coppersurfer.tk%3A6969&amp;tr=udp%3A%2F%2Fexodus.desync.com%3A6969","seeders":1,"leechers":0,"uploader":null,"files":2,"time":1279526424,"description":"General\nComplete name                    : Ip.Man.2008.ep1.avi\nFormat                           : AVI\nFile size                        : 904 MiB\nDuration                         : 1h 10mn\nOverall bit rate                 : 1 805 Kbps\n\nVideo\nFormat                           : MPEG-4 Visual\nCodec ID/Hint                    : XviD\nDuration                         : 1h 10mn\nBit rate                         : 1 346 Kbps\nWidth                            : 720 pixels\nHeight                           : 364 pixels\nDisplay aspect ratio             : 2.35:1\nStream size                      : 674 MiB (75%)\nWriting library                  : XviD 1.1.2 (UTC 2006-11-01)\n\nAudio\n\nFormat                           : AC-3\nDuration                         : 1h 9mn\nBit rate                         : 448 Kbps\nChannel(s)                       : 6 channels\nChannel positions                : Front: L C R, Side: L R, LFE\nSampling rate                    : 48.0 KHz\nStream size                      : 224 MiB (25%)\n\n\n******************************************************************\n\n\nGeneral\nComplete name                    : Ip.Man.2008.ep2.avi\nFormat                           : AVI\nFile size                        : 506 MiB\nDuration                         : 36mn 21s\nOverall bit rate                 : 1 946 Kbps\n\nVideo\n\nFormat                           : MPEG-4 Visual\nCodec ID/Hint                    : XviD\nDuration                         : 36mn 21s\nBit rate                         : 1 487 Kbps\nWidth                            : 720 pixels\nHeight                           : 364 pixels\nDisplay aspect ratio             : 2.35:1\nBits/(Pixel*Frame)               : 0.237\nStream size                      : 387 MiB (76%)\nWriting library                  : XviD 1.1.2 (UTC 2006-11-01)\n\nAudio\n\nFormat                           : AC-3\nDuration                         : 36mn 21s\nBit rate                         : 448 Kbps\nChannel(s)                       : 6 channels\nChannel positions                : Front: L C R, Side: L R, LFE\nSampling rate                    : 48.0 KHz\nStream size                      : 116 MiB (23%)\n\n\n","torrent":{"xt":"urn:btih:47e438a3dbecdd0f537915a8a1817885e786c6a9","amp;dn":"Ip.Man.2008.SWESUB.DVDRip.XviD.AC3.%285.1%29.-Zen_Bud","amp;tr":["udp%3A%2F%2Ftracker.openbittorrent.com%3A80","udp%3A%2F%2Fopen.demonii.com%3A1337","udp%3A%2F%2Ftracker.coppersurfer.tk%3A6969","udp%3A%2F%2Fexodus.desync.com%3A6969"],"infoHash":"47e438a3dbecdd0f537915a8a1817885e786c6a9","infoHashBuffer":{"type":"Buffer","data":[71,228,56,163,219,236,221,15,83,121,21,168,161,129,120,133,231,134,198,169]},"announce":[],"urlList":[]}}